<svg xmlns="http://www.w3.org/2000/svg" xmlns:xlink="http://www.w3.org/1999/xlink" width="500"
  zoomAndPan="magnify" viewBox="0 0 375 374.999991" height="500" preserveAspectRatio="xMidYMid meet"
  version="1.0">
  <defs>
    <g />
  </defs>
  <g fill="#000000" fill-opacity="1">
    <g transform="translate(90.057209, 239.428862)">
      <g>
        <path
          d="M 70.75 -163.890625 C 65.03125 -163.566406 60.859375 -162.925781 58.234375 -161.96875 C 55.617188 -161.019531 53.832031 -159.195312 52.875 -156.5 C 51.925781 -153.800781 51.453125 -149.429688 51.453125 -143.390625 L 51.453125 -25.25 C 51.453125 -19.21875 51.925781 -14.847656 52.875 -12.140625 C 53.832031 -9.441406 55.617188 -7.65625 58.234375 -6.78125 C 60.859375 -5.914062 65.03125 -5.484375 70.75 -5.484375 L 88.140625 -5.484375 C 97.984375 -5.484375 105.484375 -6.867188 110.640625 -9.640625 C 115.804688 -12.421875 119.578125 -16.90625 121.953125 -23.09375 C 124.335938 -29.289062 126.085938 -38.265625 127.203125 -50.015625 L 132.671875 -50.015625 C 132.203125 -45.097656 131.96875 -38.585938 131.96875 -30.484375 C 131.96875 -21.429688 132.519531 -11.269531 133.625 0 C 122.832031 -0.476562 104.648438 -0.71875 79.078125 -0.71875 C 48.585938 -0.71875 25.5625 -0.476562 10 0 L 10 -4.765625 C 15.71875 -5.078125 19.882812 -5.707031 22.5 -6.65625 C 25.125 -7.613281 26.910156 -9.441406 27.859375 -12.140625 C 28.816406 -14.847656 29.296875 -19.21875 29.296875 -25.25 L 29.296875 -143.390625 C 29.296875 -149.429688 28.816406 -153.800781 27.859375 -156.5 C 26.910156 -159.195312 25.125 -161.019531 22.5 -161.96875 C 19.882812 -162.925781 15.71875 -163.566406 10 -163.890625 L 10 -168.640625 C 16.675781 -168.171875 26.84375 -167.9375 40.5 -167.9375 C 53.195312 -167.9375 63.28125 -168.171875 70.75 -168.640625 Z M 70.75 -163.890625 " />
      </g>
    </g>
  </g>
  <g fill="#000000" fill-opacity="1">
    <g transform="translate(151.529321, 265.673808)">
      <g>
        <path
          d="M 52.75 -148.15625 C 58.789062 -148.15625 63.5625 -147.503906 67.0625 -146.203125 C 70.570312 -144.898438 74.179688 -143.007812 77.890625 -140.53125 C 80.910156 -138.613281 83.242188 -137.65625 84.890625 -137.65625 C 86.128906 -137.65625 87.09375 -138.375 87.78125 -139.8125 C 88.46875 -141.257812 89.019531 -143.5625 89.4375 -146.71875 L 94.171875 -146.71875 C 93.484375 -138.75 93.140625 -124.738281 93.140625 -104.6875 L 88.40625 -104.6875 C 87.582031 -115.8125 84.382812 -125.1875 78.8125 -132.8125 C 73.25 -140.4375 65.179688 -144.25 54.609375 -144.25 C 47.191406 -144.25 41.144531 -142.015625 36.46875 -137.546875 C 31.800781 -133.078125 29.46875 -127.34375 29.46875 -120.34375 C 29.46875 -115.125 30.664062 -110.585938 33.0625 -106.734375 C 35.46875 -102.890625 38.523438 -99.59375 42.234375 -96.84375 C 45.953125 -94.101562 51.242188 -90.601562 58.109375 -86.34375 L 64.078125 -82.625 C 72.734375 -77.269531 79.566406 -72.566406 84.578125 -68.515625 C 89.597656 -64.460938 93.617188 -59.828125 96.640625 -54.609375 C 99.660156 -49.390625 101.171875 -43.273438 101.171875 -36.265625 C 101.171875 -23.765625 97.050781 -14.113281 88.8125 -7.3125 C 80.570312 -0.507812 70.128906 2.890625 57.484375 2.890625 C 50.890625 2.890625 45.5 2.203125 41.3125 0.828125 C 37.125 -0.546875 33.109375 -2.398438 29.265625 -4.734375 C 26.242188 -6.660156 23.90625 -7.625 22.25 -7.625 C 21.019531 -7.625 20.0625 -6.898438 19.375 -5.453125 C 18.6875 -4.015625 18.132812 -1.71875 17.71875 1.4375 L 12.984375 1.4375 C 13.535156 -6.113281 13.8125 -22.597656 13.8125 -48.015625 L 18.546875 -48.015625 C 19.503906 -34.140625 22.9375 -22.875 28.84375 -14.21875 C 34.75 -5.5625 43.816406 -1.234375 56.046875 -1.234375 C 63.460938 -1.234375 69.78125 -3.535156 75 -8.140625 C 80.226562 -12.742188 82.84375 -19.578125 82.84375 -28.640625 C 82.84375 -36.335938 80.265625 -42.863281 75.109375 -48.21875 C 69.953125 -53.570312 61.8125 -59.617188 50.6875 -66.359375 C 42.582031 -71.296875 36.019531 -75.6875 31 -79.53125 C 25.988281 -83.382812 21.90625 -88.023438 18.75 -93.453125 C 15.59375 -98.878906 14.015625 -105.234375 14.015625 -112.515625 C 14.015625 -124.046875 17.722656 -132.867188 25.140625 -138.984375 C 32.554688 -145.097656 41.757812 -148.15625 52.75 -148.15625 Z M 52.75 -148.15625 " />
      </g>
    </g>
  </g>
</svg>