<svg xmlns="http://www.w3.org/2000/svg" xmlns:xlink="http://www.w3.org/1999/xlink" width="300"
    zoomAndPan="magnify" viewBox="0 0 224.87999 74.999997" height="100"
    preserveAspectRatio="xMidYMid meet" version="1.0">
    <defs>
        <g />
    </defs>
    <g fill="#ffffff" fill-opacity="1">
        <g transform="translate(31.390969, 34.100749)">
            <g>
                <path
                    d="M 13.953125 -27.5 C 12.992188 -27.445312 12.289062 -27.335938 11.84375 -27.171875 C 11.40625 -27.015625 11.109375 -26.707031 10.953125 -26.25 C 10.796875 -25.800781 10.71875 -25.070312 10.71875 -24.0625 L 10.71875 -3.75 C 10.71875 -2.90625 10.78125 -2.285156 10.90625 -1.890625 C 11.039062 -1.503906 11.273438 -1.242188 11.609375 -1.109375 C 11.941406 -0.984375 12.484375 -0.921875 13.234375 -0.921875 L 15.1875 -0.921875 C 17 -0.921875 18.5625 -1.734375 19.875 -3.359375 C 21.195312 -4.984375 22.0625 -7.140625 22.46875 -9.828125 L 23.375 -9.828125 C 23.300781 -8.921875 23.265625 -7.75 23.265625 -6.3125 C 23.265625 -3.757812 23.359375 -1.65625 23.546875 0 C 21.734375 -0.0820312 18.679688 -0.125 14.390625 -0.125 C 8.578125 -0.125 4.234375 -0.0820312 1.359375 0 L 1.359375 -0.796875 C 2.234375 -0.847656 2.878906 -0.953125 3.296875 -1.109375 C 3.710938 -1.273438 3.992188 -1.582031 4.140625 -2.03125 C 4.285156 -2.488281 4.359375 -3.222656 4.359375 -4.234375 L 4.359375 -24.0625 C 4.359375 -25.070312 4.285156 -25.800781 4.140625 -26.25 C 3.992188 -26.707031 3.710938 -27.015625 3.296875 -27.171875 C 2.878906 -27.335938 2.234375 -27.445312 1.359375 -27.5 L 1.359375 -28.296875 C 2.710938 -28.210938 4.816406 -28.171875 7.671875 -28.171875 C 10.390625 -28.171875 12.484375 -28.210938 13.953125 -28.296875 Z M 13.953125 -27.5 " />
            </g>
        </g>
    </g>
    <g fill="#ffffff" fill-opacity="1">
        <g transform="translate(51.059816, 65.266989)">
            <g>
                <path
                    d="M 11.34375 -28.8125 C 12.726562 -28.8125 13.832031 -28.675781 14.65625 -28.40625 C 15.488281 -28.144531 16.332031 -27.765625 17.1875 -27.265625 C 17.476562 -27.097656 17.738281 -26.960938 17.96875 -26.859375 C 18.195312 -26.753906 18.390625 -26.703125 18.546875 -26.703125 C 18.785156 -26.703125 18.972656 -26.835938 19.109375 -27.109375 C 19.242188 -27.390625 19.347656 -27.835938 19.421875 -28.453125 L 20.34375 -28.453125 C 20.207031 -26.671875 20.140625 -23.632812 20.140625 -19.34375 L 19.21875 -19.34375 C 19.113281 -20.78125 18.785156 -22.148438 18.234375 -23.453125 C 17.691406 -24.765625 16.921875 -25.828125 15.921875 -26.640625 C 14.921875 -27.453125 13.757812 -27.859375 12.4375 -27.859375 C 11.125 -27.859375 10.0625 -27.488281 9.25 -26.75 C 8.4375 -26.019531 8.03125 -25.03125 8.03125 -23.78125 C 8.03125 -22.84375 8.226562 -22.023438 8.625 -21.328125 C 9.03125 -20.640625 9.59375 -20.007812 10.3125 -19.4375 C 11.03125 -18.863281 12.132812 -18.085938 13.625 -17.109375 L 14.90625 -16.234375 C 16.476562 -15.191406 17.71875 -14.28125 18.625 -13.5 C 19.53125 -12.726562 20.269531 -11.828125 20.84375 -10.796875 C 21.414062 -9.773438 21.703125 -8.585938 21.703125 -7.234375 C 21.703125 -5.523438 21.257812 -4.09375 20.375 -2.9375 C 19.5 -1.78125 18.304688 -0.90625 16.796875 -0.3125 C 15.296875 0.269531 13.628906 0.5625 11.796875 0.5625 C 10.296875 0.5625 9.050781 0.425781 8.0625 0.15625 C 7.082031 -0.101562 6.179688 -0.460938 5.359375 -0.921875 C 4.765625 -1.296875 4.3125 -1.484375 4 -1.484375 C 3.757812 -1.484375 3.570312 -1.34375 3.4375 -1.0625 C 3.300781 -0.78125 3.195312 -0.332031 3.125 0.28125 L 2.203125 0.28125 C 2.304688 -1.394531 2.359375 -4.992188 2.359375 -10.515625 L 3.28125 -10.515625 C 3.46875 -7.523438 4.132812 -5.101562 5.28125 -3.25 C 6.425781 -1.40625 8.179688 -0.484375 10.546875 -0.484375 C 11.984375 -0.484375 13.171875 -0.867188 14.109375 -1.640625 C 15.046875 -2.410156 15.515625 -3.515625 15.515625 -4.953125 C 15.515625 -6.441406 15.03125 -7.71875 14.0625 -8.78125 C 13.101562 -9.851562 11.585938 -11.054688 9.515625 -12.390625 C 7.910156 -13.429688 6.628906 -14.335938 5.671875 -15.109375 C 4.710938 -15.878906 3.925781 -16.789062 3.3125 -17.84375 C 2.695312 -18.894531 2.390625 -20.113281 2.390625 -21.5 C 2.390625 -23.101562 2.796875 -24.457031 3.609375 -25.5625 C 4.429688 -26.664062 5.519531 -27.484375 6.875 -28.015625 C 8.226562 -28.546875 9.71875 -28.8125 11.34375 -28.8125 Z M 11.34375 -28.8125 " />
            </g>
        </g>
    </g>
    <g fill="#ffffff" fill-opacity="1">
        <g transform="translate(53.98483, 30.640707)">
            <g>
                <path
                    d="M 13.875 -3.59375 C 13.519531 -2.5 12.847656 -1.554688 11.859375 -0.765625 C 10.867188 0.0234375 9.675781 0.421875 8.28125 0.421875 C 6.851562 0.421875 5.617188 0.0976562 4.578125 -0.546875 C 3.546875 -1.203125 2.753906 -2.113281 2.203125 -3.28125 C 1.648438 -4.445312 1.375 -5.800781 1.375 -7.34375 C 1.375 -9.082031 1.65625 -10.59375 2.21875 -11.875 C 2.78125 -13.15625 3.566406 -14.140625 4.578125 -14.828125 C 5.597656 -15.515625 6.789062 -15.859375 8.15625 -15.859375 C 9.957031 -15.859375 11.34375 -15.3125 12.3125 -14.21875 C 13.28125 -13.132812 13.765625 -11.484375 13.765625 -9.265625 L 4.375 -9.265625 C 4.3125 -8.703125 4.28125 -8.0625 4.28125 -7.34375 C 4.28125 -6.03125 4.492188 -4.878906 4.921875 -3.890625 C 5.359375 -2.910156 5.929688 -2.15625 6.640625 -1.625 C 7.347656 -1.101562 8.09375 -0.84375 8.875 -0.84375 C 9.832031 -0.84375 10.679688 -1.070312 11.421875 -1.53125 C 12.160156 -1.988281 12.78125 -2.757812 13.28125 -3.84375 Z M 8.03125 -15.296875 C 7.09375 -15.296875 6.285156 -14.832031 5.609375 -13.90625 C 4.929688 -12.988281 4.507812 -11.628906 4.34375 -9.828125 L 10.890625 -9.828125 C 10.921875 -11.390625 10.691406 -12.691406 10.203125 -13.734375 C 9.710938 -14.773438 8.988281 -15.296875 8.03125 -15.296875 Z M 8.03125 -15.296875 " />
            </g>
        </g>
    </g>
    <g fill="#ffffff" fill-opacity="1">
        <g transform="translate(69.156714, 30.640707)">
            <g>
                <path
                    d="M 4.890625 0.203125 C 3.628906 0.203125 2.691406 -0.109375 2.078125 -0.734375 C 1.472656 -1.359375 1.171875 -2.234375 1.171875 -3.359375 C 1.171875 -4.253906 1.414062 -4.992188 1.90625 -5.578125 C 2.394531 -6.160156 2.972656 -6.617188 3.640625 -6.953125 C 4.304688 -7.296875 5.191406 -7.65625 6.296875 -8.03125 C 7.410156 -8.414062 8.238281 -8.765625 8.78125 -9.078125 C 9.320312 -9.398438 9.59375 -9.832031 9.59375 -10.375 L 9.59375 -12.234375 C 9.59375 -13.390625 9.347656 -14.179688 8.859375 -14.609375 C 8.367188 -15.046875 7.6875 -15.265625 6.8125 -15.265625 C 5.40625 -15.265625 4.414062 -14.90625 3.84375 -14.1875 C 4.238281 -14.082031 4.570312 -13.867188 4.84375 -13.546875 C 5.113281 -13.234375 5.25 -12.835938 5.25 -12.359375 C 5.25 -11.859375 5.085938 -11.460938 4.765625 -11.171875 C 4.441406 -10.878906 4.03125 -10.734375 3.53125 -10.734375 C 2.976562 -10.734375 2.5625 -10.90625 2.28125 -11.25 C 2 -11.601562 1.859375 -12.03125 1.859375 -12.53125 C 1.859375 -13.007812 1.972656 -13.410156 2.203125 -13.734375 C 2.429688 -14.054688 2.773438 -14.375 3.234375 -14.6875 C 3.710938 -15.03125 4.320312 -15.3125 5.0625 -15.53125 C 5.800781 -15.75 6.613281 -15.859375 7.5 -15.859375 C 9.050781 -15.859375 10.226562 -15.488281 11.03125 -14.75 C 11.53125 -14.289062 11.863281 -13.734375 12.03125 -13.078125 C 12.207031 -12.429688 12.296875 -11.582031 12.296875 -10.53125 L 12.296875 -2.1875 C 12.296875 -1.6875 12.363281 -1.328125 12.5 -1.109375 C 12.644531 -0.890625 12.882812 -0.78125 13.21875 -0.78125 C 13.457031 -0.78125 13.679688 -0.832031 13.890625 -0.9375 C 14.109375 -1.050781 14.335938 -1.207031 14.578125 -1.40625 L 14.90625 -0.90625 C 14.382812 -0.5 13.9375 -0.210938 13.5625 -0.046875 C 13.195312 0.117188 12.734375 0.203125 12.171875 0.203125 C 11.210938 0.203125 10.539062 -0.0351562 10.15625 -0.515625 C 9.78125 -0.992188 9.59375 -1.640625 9.59375 -2.453125 C 9 -1.453125 8.3125 -0.757812 7.53125 -0.375 C 6.75 0.0078125 5.867188 0.203125 4.890625 0.203125 Z M 6.203125 -0.984375 C 7.523438 -0.984375 8.65625 -1.742188 9.59375 -3.265625 L 9.59375 -9.140625 C 9.414062 -8.859375 9.164062 -8.628906 8.84375 -8.453125 C 8.519531 -8.273438 8.03125 -8.035156 7.375 -7.734375 C 6.613281 -7.410156 6 -7.101562 5.53125 -6.8125 C 5.0625 -6.53125 4.65625 -6.140625 4.3125 -5.640625 C 3.976562 -5.140625 3.8125 -4.5 3.8125 -3.71875 C 3.8125 -2.820312 4.03125 -2.140625 4.46875 -1.671875 C 4.90625 -1.210938 5.484375 -0.984375 6.203125 -0.984375 Z M 6.203125 -0.984375 " />
            </g>
        </g>
    </g>
    <g fill="#ffffff" fill-opacity="1">
        <g transform="translate(84.088732, 30.640707)">
            <g>
                <path
                    d="M 10.1875 -15.859375 C 10.988281 -15.859375 11.644531 -15.628906 12.15625 -15.171875 C 12.664062 -14.710938 12.921875 -14.15625 12.921875 -13.5 C 12.921875 -12.976562 12.765625 -12.53125 12.453125 -12.15625 C 12.148438 -11.789062 11.738281 -11.609375 11.21875 -11.609375 C 10.769531 -11.609375 10.390625 -11.742188 10.078125 -12.015625 C 9.773438 -12.296875 9.625 -12.675781 9.625 -13.15625 C 9.625 -13.820312 9.960938 -14.363281 10.640625 -14.78125 C 10.503906 -14.976562 10.296875 -15.078125 10.015625 -15.078125 C 9.234375 -15.078125 8.519531 -14.769531 7.875 -14.15625 C 7.238281 -13.550781 6.738281 -12.804688 6.375 -11.921875 C 6.019531 -11.046875 5.84375 -10.21875 5.84375 -9.4375 L 5.84375 -3.09375 C 5.84375 -2.164062 6.109375 -1.519531 6.640625 -1.15625 C 7.171875 -0.800781 7.96875 -0.625 9.03125 -0.625 L 9.03125 0 L 8.3125 -0.03125 C 6.269531 -0.09375 4.96875 -0.125 4.40625 -0.125 C 3.882812 -0.125 2.707031 -0.0820312 0.875 0 L 0.875 -0.625 C 1.707031 -0.625 2.289062 -0.78125 2.625 -1.09375 C 2.96875 -1.40625 3.140625 -1.96875 3.140625 -2.78125 L 3.140625 -12.171875 C 3.140625 -13.085938 2.96875 -13.753906 2.625 -14.171875 C 2.289062 -14.597656 1.707031 -14.8125 0.875 -14.8125 L 0.875 -15.4375 C 1.507812 -15.382812 2.128906 -15.359375 2.734375 -15.359375 C 3.992188 -15.359375 5.03125 -15.492188 5.84375 -15.765625 L 5.84375 -12.03125 C 6.207031 -13.019531 6.78125 -13.90625 7.5625 -14.6875 C 8.351562 -15.46875 9.226562 -15.859375 10.1875 -15.859375 Z M 10.1875 -15.859375 " />
            </g>
        </g>
    </g>
    <g fill="#ffffff" fill-opacity="1">
        <g transform="translate(97.431601, 30.640707)">
            <g>
                <path
                    d="M 10.9375 -15.859375 C 12.34375 -15.859375 13.40625 -15.476562 14.125 -14.71875 C 14.5 -14.320312 14.765625 -13.820312 14.921875 -13.21875 C 15.085938 -12.625 15.171875 -11.816406 15.171875 -10.796875 L 15.171875 -2.78125 C 15.171875 -1.96875 15.335938 -1.40625 15.671875 -1.09375 C 16.015625 -0.78125 16.609375 -0.625 17.453125 -0.625 L 17.453125 0 C 15.609375 -0.0820312 14.410156 -0.125 13.859375 -0.125 C 13.296875 -0.125 12.175781 -0.0820312 10.5 0 L 10.5 -0.625 C 11.238281 -0.625 11.75 -0.78125 12.03125 -1.09375 C 12.320312 -1.40625 12.46875 -1.96875 12.46875 -2.78125 L 12.46875 -11.453125 C 12.46875 -12.578125 12.304688 -13.429688 11.984375 -14.015625 C 11.671875 -14.609375 11.023438 -14.90625 10.046875 -14.90625 C 9.222656 -14.90625 8.488281 -14.664062 7.84375 -14.1875 C 7.207031 -13.707031 6.710938 -13.050781 6.359375 -12.21875 C 6.015625 -11.382812 5.84375 -10.457031 5.84375 -9.4375 L 5.84375 -2.78125 C 5.84375 -1.96875 5.988281 -1.40625 6.28125 -1.09375 C 6.570312 -0.78125 7.085938 -0.625 7.828125 -0.625 L 7.828125 0 C 6.148438 -0.0820312 5.03125 -0.125 4.46875 -0.125 C 3.90625 -0.125 2.707031 -0.0820312 0.875 0 L 0.875 -0.625 C 1.707031 -0.625 2.289062 -0.78125 2.625 -1.09375 C 2.96875 -1.40625 3.140625 -1.96875 3.140625 -2.78125 L 3.140625 -12.171875 C 3.140625 -13.085938 2.96875 -13.753906 2.625 -14.171875 C 2.289062 -14.597656 1.707031 -14.8125 0.875 -14.8125 L 0.875 -15.4375 C 1.507812 -15.382812 2.128906 -15.359375 2.734375 -15.359375 C 3.992188 -15.359375 5.03125 -15.492188 5.84375 -15.765625 L 5.84375 -12.234375 C 6.34375 -13.515625 7.035156 -14.4375 7.921875 -15 C 8.816406 -15.570312 9.820312 -15.859375 10.9375 -15.859375 Z M 10.9375 -15.859375 " />
            </g>
        </g>
    </g>
    <g fill="#ffffff" fill-opacity="1">
        <g transform="translate(115.332028, 30.640707)">
            <g>
                <path
                    d="M 4.28125 -22.9375 C 4.800781 -22.9375 5.25 -22.742188 5.625 -22.359375 C 6.007812 -21.984375 6.203125 -21.535156 6.203125 -21.015625 C 6.203125 -20.492188 6.007812 -20.039062 5.625 -19.65625 C 5.25 -19.28125 4.800781 -19.09375 4.28125 -19.09375 C 3.757812 -19.09375 3.304688 -19.28125 2.921875 -19.65625 C 2.546875 -20.039062 2.359375 -20.492188 2.359375 -21.015625 C 2.359375 -21.535156 2.546875 -21.984375 2.921875 -22.359375 C 3.304688 -22.742188 3.757812 -22.9375 4.28125 -22.9375 Z M 5.84375 -2.78125 C 5.84375 -1.96875 6.007812 -1.40625 6.34375 -1.09375 C 6.6875 -0.78125 7.28125 -0.625 8.125 -0.625 L 8.125 0 C 6.289062 -0.0820312 5.082031 -0.125 4.5 -0.125 C 3.914062 -0.125 2.707031 -0.0820312 0.875 0 L 0.875 -0.625 C 1.707031 -0.625 2.289062 -0.78125 2.625 -1.09375 C 2.96875 -1.40625 3.140625 -1.96875 3.140625 -2.78125 L 3.140625 -12.171875 C 3.140625 -13.085938 2.96875 -13.753906 2.625 -14.171875 C 2.289062 -14.597656 1.707031 -14.8125 0.875 -14.8125 L 0.875 -15.4375 C 1.507812 -15.382812 2.128906 -15.359375 2.734375 -15.359375 C 3.992188 -15.359375 5.03125 -15.492188 5.84375 -15.765625 Z M 5.84375 -2.78125 " />
            </g>
        </g>
    </g>
    <g fill="#ffffff" fill-opacity="1">
        <g transform="translate(124.117329, 30.640707)">
            <g>
                <path
                    d="M 10.9375 -15.859375 C 12.34375 -15.859375 13.40625 -15.476562 14.125 -14.71875 C 14.5 -14.320312 14.765625 -13.820312 14.921875 -13.21875 C 15.085938 -12.625 15.171875 -11.816406 15.171875 -10.796875 L 15.171875 -2.78125 C 15.171875 -1.96875 15.335938 -1.40625 15.671875 -1.09375 C 16.015625 -0.78125 16.609375 -0.625 17.453125 -0.625 L 17.453125 0 C 15.609375 -0.0820312 14.410156 -0.125 13.859375 -0.125 C 13.296875 -0.125 12.175781 -0.0820312 10.5 0 L 10.5 -0.625 C 11.238281 -0.625 11.75 -0.78125 12.03125 -1.09375 C 12.320312 -1.40625 12.46875 -1.96875 12.46875 -2.78125 L 12.46875 -11.453125 C 12.46875 -12.578125 12.304688 -13.429688 11.984375 -14.015625 C 11.671875 -14.609375 11.023438 -14.90625 10.046875 -14.90625 C 9.222656 -14.90625 8.488281 -14.664062 7.84375 -14.1875 C 7.207031 -13.707031 6.710938 -13.050781 6.359375 -12.21875 C 6.015625 -11.382812 5.84375 -10.457031 5.84375 -9.4375 L 5.84375 -2.78125 C 5.84375 -1.96875 5.988281 -1.40625 6.28125 -1.09375 C 6.570312 -0.78125 7.085938 -0.625 7.828125 -0.625 L 7.828125 0 C 6.148438 -0.0820312 5.03125 -0.125 4.46875 -0.125 C 3.90625 -0.125 2.707031 -0.0820312 0.875 0 L 0.875 -0.625 C 1.707031 -0.625 2.289062 -0.78125 2.625 -1.09375 C 2.96875 -1.40625 3.140625 -1.96875 3.140625 -2.78125 L 3.140625 -12.171875 C 3.140625 -13.085938 2.96875 -13.753906 2.625 -14.171875 C 2.289062 -14.597656 1.707031 -14.8125 0.875 -14.8125 L 0.875 -15.4375 C 1.507812 -15.382812 2.128906 -15.359375 2.734375 -15.359375 C 3.992188 -15.359375 5.03125 -15.492188 5.84375 -15.765625 L 5.84375 -12.234375 C 6.34375 -13.515625 7.035156 -14.4375 7.921875 -15 C 8.816406 -15.570312 9.820312 -15.859375 10.9375 -15.859375 Z M 10.9375 -15.859375 " />
            </g>
        </g>
    </g>
    <g fill="#ffffff" fill-opacity="1">
        <g transform="translate(142.017756, 30.640707)">
            <g>
                <path
                    d="M 14.125 -12.75 C 13.757812 -12.75 13.453125 -12.867188 13.203125 -13.109375 C 12.953125 -13.347656 12.828125 -13.695312 12.828125 -14.15625 C 12.828125 -14.550781 12.929688 -15.007812 13.140625 -15.53125 C 12.617188 -15.3125 12.207031 -15.066406 11.90625 -14.796875 C 11.601562 -14.523438 11.332031 -14.191406 11.09375 -13.796875 C 11.550781 -13.097656 11.78125 -12.207031 11.78125 -11.125 C 11.78125 -9.539062 11.300781 -8.351562 10.34375 -7.5625 C 9.382812 -6.78125 8.113281 -6.390625 6.53125 -6.390625 L 6.5 -6.390625 C 5.84375 -6.003906 5.34375 -5.648438 5 -5.328125 C 4.664062 -5.015625 4.5 -4.65625 4.5 -4.25 C 4.5 -3.613281 4.976562 -3.296875 5.9375 -3.296875 L 9.6875 -3.296875 C 11.039062 -3.296875 12.160156 -3 13.046875 -2.40625 C 13.941406 -1.820312 14.390625 -0.941406 14.390625 0.234375 C 14.390625 1.191406 14.078125 2.082031 13.453125 2.90625 C 12.835938 3.726562 11.929688 4.390625 10.734375 4.890625 C 9.535156 5.390625 8.085938 5.640625 6.390625 5.640625 C 4.648438 5.640625 3.191406 5.375 2.015625 4.84375 C 0.847656 4.3125 0.265625 3.523438 0.265625 2.484375 C 0.265625 1.804688 0.539062 1.21875 1.09375 0.71875 C 1.644531 0.21875 2.410156 -0.171875 3.390625 -0.453125 L 3.5625 0.03125 C 3.125 0.164062 2.773438 0.441406 2.515625 0.859375 C 2.253906 1.285156 2.125 1.757812 2.125 2.28125 C 2.125 3.195312 2.539062 3.898438 3.375 4.390625 C 4.207031 4.878906 5.320312 5.125 6.71875 5.125 C 8.257812 5.125 9.578125 4.828125 10.671875 4.234375 C 11.773438 3.648438 12.328125 2.738281 12.328125 1.5 C 12.328125 0.78125 12.070312 0.222656 11.5625 -0.171875 C 11.050781 -0.578125 10.144531 -0.78125 8.84375 -0.78125 L 6.625 -0.78125 C 5.445312 -0.78125 4.503906 -0.925781 3.796875 -1.21875 C 3.085938 -1.519531 2.734375 -2.125 2.734375 -3.03125 C 2.734375 -3.644531 2.957031 -4.234375 3.40625 -4.796875 C 3.851562 -5.359375 4.597656 -5.910156 5.640625 -6.453125 C 4.316406 -6.585938 3.257812 -7.046875 2.46875 -7.828125 C 1.6875 -8.609375 1.296875 -9.707031 1.296875 -11.125 C 1.296875 -12.707031 1.773438 -13.890625 2.734375 -14.671875 C 3.691406 -15.460938 4.957031 -15.859375 6.53125 -15.859375 C 8.414062 -15.859375 9.804688 -15.335938 10.703125 -14.296875 C 11.085938 -14.835938 11.566406 -15.28125 12.140625 -15.625 C 12.722656 -15.976562 13.300781 -16.15625 13.875 -16.15625 C 14.394531 -16.15625 14.816406 -16.003906 15.140625 -15.703125 C 15.460938 -15.410156 15.625 -14.984375 15.625 -14.421875 C 15.625 -13.859375 15.46875 -13.4375 15.15625 -13.15625 C 14.84375 -12.882812 14.5 -12.75 14.125 -12.75 Z M 6.53125 -6.921875 C 7.332031 -6.921875 7.9375 -7.234375 8.34375 -7.859375 C 8.757812 -8.492188 8.96875 -9.582031 8.96875 -11.125 C 8.96875 -12.664062 8.757812 -13.75 8.34375 -14.375 C 7.9375 -15.007812 7.332031 -15.328125 6.53125 -15.328125 C 5.738281 -15.328125 5.132812 -15.007812 4.71875 -14.375 C 4.3125 -13.75 4.109375 -12.664062 4.109375 -11.125 C 4.109375 -9.582031 4.3125 -8.492188 4.71875 -7.859375 C 5.132812 -7.234375 5.738281 -6.921875 6.53125 -6.921875 Z M 6.53125 -6.921875 " />
            </g>
        </g>
    </g>
    <g fill="#ffffff" fill-opacity="1">
        <g transform="translate(71.960123, 62.544902)">
            <g>
                <path
                    d="M 4.28125 -22.9375 C 4.800781 -22.9375 5.25 -22.742188 5.625 -22.359375 C 6.007812 -21.984375 6.203125 -21.535156 6.203125 -21.015625 C 6.203125 -20.492188 6.007812 -20.039062 5.625 -19.65625 C 5.25 -19.28125 4.800781 -19.09375 4.28125 -19.09375 C 3.757812 -19.09375 3.304688 -19.28125 2.921875 -19.65625 C 2.546875 -20.039062 2.359375 -20.492188 2.359375 -21.015625 C 2.359375 -21.535156 2.546875 -21.984375 2.921875 -22.359375 C 3.304688 -22.742188 3.757812 -22.9375 4.28125 -22.9375 Z M 5.84375 -2.78125 C 5.84375 -1.96875 6.007812 -1.40625 6.34375 -1.09375 C 6.6875 -0.78125 7.28125 -0.625 8.125 -0.625 L 8.125 0 C 6.289062 -0.0820312 5.082031 -0.125 4.5 -0.125 C 3.914062 -0.125 2.707031 -0.0820312 0.875 0 L 0.875 -0.625 C 1.707031 -0.625 2.289062 -0.78125 2.625 -1.09375 C 2.96875 -1.40625 3.140625 -1.96875 3.140625 -2.78125 L 3.140625 -12.171875 C 3.140625 -13.085938 2.96875 -13.753906 2.625 -14.171875 C 2.289062 -14.597656 1.707031 -14.8125 0.875 -14.8125 L 0.875 -15.4375 C 1.507812 -15.382812 2.128906 -15.359375 2.734375 -15.359375 C 3.992188 -15.359375 5.03125 -15.492188 5.84375 -15.765625 Z M 5.84375 -2.78125 " />
            </g>
        </g>
    </g>
    <g fill="#ffffff" fill-opacity="1">
        <g transform="translate(80.745424, 62.544902)">
            <g>
                <path
                    d="M 23.890625 -2.78125 C 23.890625 -1.96875 24.0625 -1.40625 24.40625 -1.09375 C 24.75 -0.78125 25.335938 -0.625 26.171875 -0.625 L 26.171875 0 C 24.335938 -0.0820312 23.140625 -0.125 22.578125 -0.125 C 22.015625 -0.125 20.894531 -0.0820312 19.21875 0 L 19.21875 -0.625 C 19.957031 -0.625 20.472656 -0.78125 20.765625 -1.09375 C 21.054688 -1.40625 21.203125 -1.96875 21.203125 -2.78125 L 21.203125 -11.453125 C 21.203125 -12.210938 21.15625 -12.828125 21.0625 -13.296875 C 20.96875 -13.765625 20.753906 -14.148438 20.421875 -14.453125 C 20.097656 -14.753906 19.597656 -14.90625 18.921875 -14.90625 C 18.160156 -14.90625 17.46875 -14.664062 16.84375 -14.1875 C 16.226562 -13.707031 15.742188 -13.050781 15.390625 -12.21875 C 15.046875 -11.382812 14.875 -10.46875 14.875 -9.46875 L 14.875 -2.78125 C 14.875 -1.96875 15.039062 -1.40625 15.375 -1.09375 C 15.71875 -0.78125 16.3125 -0.625 17.15625 -0.625 L 17.15625 0 C 15.3125 -0.0820312 14.109375 -0.125 13.546875 -0.125 C 12.992188 -0.125 11.875 -0.0820312 10.1875 0 L 10.1875 -0.625 C 10.925781 -0.625 11.441406 -0.78125 11.734375 -1.09375 C 12.023438 -1.40625 12.171875 -1.96875 12.171875 -2.78125 L 12.171875 -11.453125 C 12.171875 -12.210938 12.125 -12.828125 12.03125 -13.296875 C 11.945312 -13.765625 11.738281 -14.148438 11.40625 -14.453125 C 11.082031 -14.753906 10.578125 -14.90625 9.890625 -14.90625 C 9.128906 -14.90625 8.4375 -14.664062 7.8125 -14.1875 C 7.195312 -13.707031 6.710938 -13.046875 6.359375 -12.203125 C 6.015625 -11.359375 5.84375 -10.4375 5.84375 -9.4375 L 5.84375 -2.78125 C 5.84375 -1.96875 5.988281 -1.40625 6.28125 -1.09375 C 6.570312 -0.78125 7.085938 -0.625 7.828125 -0.625 L 7.828125 0 C 6.148438 -0.0820312 5.03125 -0.125 4.46875 -0.125 C 3.90625 -0.125 2.707031 -0.0820312 0.875 0 L 0.875 -0.625 C 1.707031 -0.625 2.289062 -0.78125 2.625 -1.09375 C 2.96875 -1.40625 3.140625 -1.96875 3.140625 -2.78125 L 3.140625 -12.171875 C 3.140625 -13.085938 2.96875 -13.753906 2.625 -14.171875 C 2.289062 -14.597656 1.707031 -14.8125 0.875 -14.8125 L 0.875 -15.4375 C 1.507812 -15.382812 2.128906 -15.359375 2.734375 -15.359375 C 3.992188 -15.359375 5.03125 -15.492188 5.84375 -15.765625 L 5.84375 -12.234375 C 6.320312 -13.472656 7 -14.382812 7.875 -14.96875 C 8.757812 -15.5625 9.722656 -15.859375 10.765625 -15.859375 C 12.117188 -15.859375 13.15625 -15.476562 13.875 -14.71875 C 14.375 -14.195312 14.6875 -13.398438 14.8125 -12.328125 C 15.3125 -13.585938 16 -14.488281 16.875 -15.03125 C 17.757812 -15.582031 18.734375 -15.859375 19.796875 -15.859375 C 21.148438 -15.859375 22.1875 -15.476562 22.90625 -14.71875 C 23.269531 -14.320312 23.523438 -13.8125 23.671875 -13.1875 C 23.816406 -12.570312 23.890625 -11.773438 23.890625 -10.796875 Z M 23.890625 -2.78125 " />
            </g>
        </g>
    </g>
    <g fill="#ffffff" fill-opacity="1">
        <g transform="translate(107.371194, 62.544902)">
            <g>
                <path
                    d="M 10.4375 -15.859375 C 11.5 -15.859375 12.453125 -15.566406 13.296875 -14.984375 C 14.148438 -14.410156 14.816406 -13.5625 15.296875 -12.4375 C 15.773438 -11.320312 16.015625 -9.984375 16.015625 -8.421875 C 16.015625 -6.878906 15.769531 -5.4375 15.28125 -4.09375 C 14.789062 -2.757812 14.03125 -1.671875 13 -0.828125 C 11.96875 0.00390625 10.679688 0.421875 9.140625 0.421875 C 8.378906 0.421875 7.6875 0.269531 7.0625 -0.03125 C 6.445312 -0.332031 5.972656 -0.722656 5.640625 -1.203125 L 5.640625 2.640625 C 5.640625 3.460938 5.878906 4.023438 6.359375 4.328125 C 6.835938 4.640625 7.554688 4.796875 8.515625 4.796875 L 8.515625 5.421875 L 7.828125 5.390625 C 5.960938 5.335938 4.753906 5.3125 4.203125 5.3125 C 3.722656 5.3125 2.640625 5.347656 0.953125 5.421875 L 0.953125 4.796875 C 1.691406 4.796875 2.207031 4.660156 2.5 4.390625 C 2.789062 4.117188 2.9375 3.632812 2.9375 2.9375 L 2.9375 -12.171875 C 2.9375 -13.085938 2.765625 -13.753906 2.421875 -14.171875 C 2.085938 -14.597656 1.5 -14.8125 0.65625 -14.8125 L 0.65625 -15.4375 C 1.28125 -15.382812 1.898438 -15.359375 2.515625 -15.359375 C 3.773438 -15.359375 4.816406 -15.492188 5.640625 -15.765625 L 5.640625 -12.59375 C 6.078125 -13.632812 6.710938 -14.4375 7.546875 -15 C 8.390625 -15.570312 9.351562 -15.859375 10.4375 -15.859375 Z M 8.8125 -0.265625 C 11.675781 -0.265625 13.109375 -2.84375 13.109375 -8 C 13.109375 -12.644531 11.945312 -14.96875 9.625 -14.96875 C 8.726562 -14.96875 7.914062 -14.640625 7.1875 -13.984375 C 6.46875 -13.335938 5.953125 -12.40625 5.640625 -11.1875 L 5.640625 -2.1875 C 5.921875 -1.601562 6.328125 -1.132812 6.859375 -0.78125 C 7.398438 -0.4375 8.050781 -0.265625 8.8125 -0.265625 Z M 8.8125 -0.265625 " />
            </g>
        </g>
    </g>
    <g fill="#ffffff" fill-opacity="1">
        <g transform="translate(124.791878, 62.544902)">
            <g>
                <path
                    d="M 5.640625 -2.78125 C 5.640625 -1.96875 5.804688 -1.40625 6.140625 -1.09375 C 6.484375 -0.78125 7.078125 -0.625 7.921875 -0.625 L 7.921875 0 C 6.078125 -0.0820312 4.863281 -0.125 4.28125 -0.125 C 3.707031 -0.125 2.5 -0.0820312 0.65625 0 L 0.65625 -0.625 C 1.5 -0.625 2.085938 -0.78125 2.421875 -1.09375 C 2.765625 -1.40625 2.9375 -1.96875 2.9375 -2.78125 L 2.9375 -19.90625 C 2.9375 -20.820312 2.765625 -21.488281 2.421875 -21.90625 C 2.085938 -22.332031 1.5 -22.546875 0.65625 -22.546875 L 0.65625 -23.171875 C 1.28125 -23.117188 1.898438 -23.09375 2.515625 -23.09375 C 3.773438 -23.09375 4.816406 -23.234375 5.640625 -23.515625 Z M 5.640625 -2.78125 " />
            </g>
        </g>
    </g>
    <g fill="#ffffff" fill-opacity="1">
        <g transform="translate(133.367292, 62.544902)">
            <g>
                <path
                    d="M 4.28125 -22.9375 C 4.800781 -22.9375 5.25 -22.742188 5.625 -22.359375 C 6.007812 -21.984375 6.203125 -21.535156 6.203125 -21.015625 C 6.203125 -20.492188 6.007812 -20.039062 5.625 -19.65625 C 5.25 -19.28125 4.800781 -19.09375 4.28125 -19.09375 C 3.757812 -19.09375 3.304688 -19.28125 2.921875 -19.65625 C 2.546875 -20.039062 2.359375 -20.492188 2.359375 -21.015625 C 2.359375 -21.535156 2.546875 -21.984375 2.921875 -22.359375 C 3.304688 -22.742188 3.757812 -22.9375 4.28125 -22.9375 Z M 5.84375 -2.78125 C 5.84375 -1.96875 6.007812 -1.40625 6.34375 -1.09375 C 6.6875 -0.78125 7.28125 -0.625 8.125 -0.625 L 8.125 0 C 6.289062 -0.0820312 5.082031 -0.125 4.5 -0.125 C 3.914062 -0.125 2.707031 -0.0820312 0.875 0 L 0.875 -0.625 C 1.707031 -0.625 2.289062 -0.78125 2.625 -1.09375 C 2.96875 -1.40625 3.140625 -1.96875 3.140625 -2.78125 L 3.140625 -12.171875 C 3.140625 -13.085938 2.96875 -13.753906 2.625 -14.171875 C 2.289062 -14.597656 1.707031 -14.8125 0.875 -14.8125 L 0.875 -15.4375 C 1.507812 -15.382812 2.128906 -15.359375 2.734375 -15.359375 C 3.992188 -15.359375 5.03125 -15.492188 5.84375 -15.765625 Z M 5.84375 -2.78125 " />
            </g>
        </g>
    </g>
    <g fill="#ffffff" fill-opacity="1">
        <g transform="translate(142.152593, 62.544902)">
            <g>
                <path
                    d="M 8.28125 -23.453125 C 9.3125 -23.453125 10.179688 -23.179688 10.890625 -22.640625 C 11.503906 -22.140625 11.8125 -21.519531 11.8125 -20.78125 C 11.8125 -20.320312 11.660156 -19.941406 11.359375 -19.640625 C 11.066406 -19.335938 10.6875 -19.1875 10.21875 -19.1875 C 9.757812 -19.1875 9.367188 -19.332031 9.046875 -19.625 C 8.734375 -19.914062 8.578125 -20.3125 8.578125 -20.8125 C 8.578125 -21.226562 8.691406 -21.566406 8.921875 -21.828125 C 9.148438 -22.085938 9.453125 -22.257812 9.828125 -22.34375 C 9.773438 -22.539062 9.617188 -22.695312 9.359375 -22.8125 C 9.097656 -22.9375 8.765625 -23 8.359375 -23 C 7.921875 -23 7.53125 -22.894531 7.1875 -22.6875 C 6.851562 -22.488281 6.597656 -22.222656 6.421875 -21.890625 C 6.203125 -21.484375 6.054688 -20.890625 5.984375 -20.109375 C 5.910156 -19.335938 5.875 -18.03125 5.875 -16.1875 L 5.875 -15.40625 L 9.078125 -15.40625 L 9.078125 -14.8125 L 5.875 -14.8125 L 5.875 -3.09375 C 5.875 -2.164062 6.140625 -1.519531 6.671875 -1.15625 C 7.203125 -0.800781 8 -0.625 9.0625 -0.625 L 9.0625 0 L 8.328125 -0.03125 C 6.296875 -0.09375 5 -0.125 4.4375 -0.125 C 3.914062 -0.125 2.738281 -0.0820312 0.90625 0 L 0.90625 -0.625 C 1.738281 -0.625 2.320312 -0.78125 2.65625 -1.09375 C 3 -1.40625 3.171875 -1.96875 3.171875 -2.78125 L 3.171875 -14.8125 L 0.78125 -14.8125 L 0.78125 -15.40625 L 3.171875 -15.40625 C 3.171875 -17.164062 3.28125 -18.523438 3.5 -19.484375 C 3.726562 -20.441406 4.128906 -21.265625 4.703125 -21.953125 C 5.109375 -22.410156 5.617188 -22.773438 6.234375 -23.046875 C 6.859375 -23.316406 7.539062 -23.453125 8.28125 -23.453125 Z M 8.28125 -23.453125 " />
            </g>
        </g>
    </g>
    <g fill="#ffffff" fill-opacity="1">
        <g transform="translate(152.107267, 62.544902)">
            <g>
                <path
                    d="M 4.28125 -22.9375 C 4.800781 -22.9375 5.25 -22.742188 5.625 -22.359375 C 6.007812 -21.984375 6.203125 -21.535156 6.203125 -21.015625 C 6.203125 -20.492188 6.007812 -20.039062 5.625 -19.65625 C 5.25 -19.28125 4.800781 -19.09375 4.28125 -19.09375 C 3.757812 -19.09375 3.304688 -19.28125 2.921875 -19.65625 C 2.546875 -20.039062 2.359375 -20.492188 2.359375 -21.015625 C 2.359375 -21.535156 2.546875 -21.984375 2.921875 -22.359375 C 3.304688 -22.742188 3.757812 -22.9375 4.28125 -22.9375 Z M 5.84375 -2.78125 C 5.84375 -1.96875 6.007812 -1.40625 6.34375 -1.09375 C 6.6875 -0.78125 7.28125 -0.625 8.125 -0.625 L 8.125 0 C 6.289062 -0.0820312 5.082031 -0.125 4.5 -0.125 C 3.914062 -0.125 2.707031 -0.0820312 0.875 0 L 0.875 -0.625 C 1.707031 -0.625 2.289062 -0.78125 2.625 -1.09375 C 2.96875 -1.40625 3.140625 -1.96875 3.140625 -2.78125 L 3.140625 -12.171875 C 3.140625 -13.085938 2.96875 -13.753906 2.625 -14.171875 C 2.289062 -14.597656 1.707031 -14.8125 0.875 -14.8125 L 0.875 -15.4375 C 1.507812 -15.382812 2.128906 -15.359375 2.734375 -15.359375 C 3.992188 -15.359375 5.03125 -15.492188 5.84375 -15.765625 Z M 5.84375 -2.78125 " />
            </g>
        </g>
    </g>
    <g fill="#ffffff" fill-opacity="1">
        <g transform="translate(160.892568, 62.544902)">
            <g>
                <path
                    d="M 13.875 -3.59375 C 13.519531 -2.5 12.847656 -1.554688 11.859375 -0.765625 C 10.867188 0.0234375 9.675781 0.421875 8.28125 0.421875 C 6.851562 0.421875 5.617188 0.0976562 4.578125 -0.546875 C 3.546875 -1.203125 2.753906 -2.113281 2.203125 -3.28125 C 1.648438 -4.445312 1.375 -5.800781 1.375 -7.34375 C 1.375 -9.082031 1.65625 -10.59375 2.21875 -11.875 C 2.78125 -13.15625 3.566406 -14.140625 4.578125 -14.828125 C 5.597656 -15.515625 6.789062 -15.859375 8.15625 -15.859375 C 9.957031 -15.859375 11.34375 -15.3125 12.3125 -14.21875 C 13.28125 -13.132812 13.765625 -11.484375 13.765625 -9.265625 L 4.375 -9.265625 C 4.3125 -8.703125 4.28125 -8.0625 4.28125 -7.34375 C 4.28125 -6.03125 4.492188 -4.878906 4.921875 -3.890625 C 5.359375 -2.910156 5.929688 -2.15625 6.640625 -1.625 C 7.347656 -1.101562 8.09375 -0.84375 8.875 -0.84375 C 9.832031 -0.84375 10.679688 -1.070312 11.421875 -1.53125 C 12.160156 -1.988281 12.78125 -2.757812 13.28125 -3.84375 Z M 8.03125 -15.296875 C 7.09375 -15.296875 6.285156 -14.832031 5.609375 -13.90625 C 4.929688 -12.988281 4.507812 -11.628906 4.34375 -9.828125 L 10.890625 -9.828125 C 10.921875 -11.390625 10.691406 -12.691406 10.203125 -13.734375 C 9.710938 -14.773438 8.988281 -15.296875 8.03125 -15.296875 Z M 8.03125 -15.296875 " />
            </g>
        </g>
    </g>
    <g fill="#ffffff" fill-opacity="1">
        <g transform="translate(176.064452, 62.544902)">
            <g>
                <path
                    d="M 14.515625 -3.265625 C 14.515625 -2.347656 14.679688 -1.675781 15.015625 -1.25 C 15.359375 -0.832031 15.953125 -0.625 16.796875 -0.625 L 16.796875 0 C 16.171875 -0.0625 15.550781 -0.09375 14.9375 -0.09375 C 13.675781 -0.09375 12.632812 0.046875 11.8125 0.328125 L 11.8125 -2.34375 C 11.457031 -1.4375 10.914062 -0.75 10.1875 -0.28125 C 9.46875 0.1875 8.59375 0.421875 7.5625 0.421875 C 5.632812 0.421875 4.125 -0.265625 3.03125 -1.640625 C 1.945312 -3.023438 1.414062 -5.046875 1.4375 -7.703125 C 1.4375 -9.441406 1.738281 -10.925781 2.34375 -12.15625 C 2.957031 -13.382812 3.78125 -14.304688 4.8125 -14.921875 C 5.84375 -15.546875 6.976562 -15.859375 8.21875 -15.859375 C 8.976562 -15.859375 9.671875 -15.710938 10.296875 -15.421875 C 10.929688 -15.140625 11.4375 -14.695312 11.8125 -14.09375 L 11.8125 -19.90625 C 11.8125 -20.820312 11.640625 -21.488281 11.296875 -21.90625 C 10.960938 -22.332031 10.375 -22.546875 9.53125 -22.546875 L 9.53125 -23.171875 C 10.175781 -23.117188 10.796875 -23.09375 11.390625 -23.09375 C 12.648438 -23.09375 13.691406 -23.234375 14.515625 -23.515625 Z M 8.421875 -0.484375 C 9.203125 -0.484375 9.898438 -0.78125 10.515625 -1.375 C 11.140625 -1.976562 11.570312 -2.828125 11.8125 -3.921875 L 11.8125 -12.859375 C 11.269531 -14.398438 10.148438 -15.171875 8.453125 -15.171875 C 7.210938 -15.171875 6.210938 -14.535156 5.453125 -13.265625 C 4.691406 -11.992188 4.320312 -10.140625 4.34375 -7.703125 C 4.320312 -5.304688 4.660156 -3.503906 5.359375 -2.296875 C 6.066406 -1.085938 7.085938 -0.484375 8.421875 -0.484375 Z M 8.421875 -0.484375 " />
            </g>
        </g>
    </g>
</svg>